<svg xmlns="http://www.w3.org/2000/svg"  viewBox="0 0 64 64" width="64px" height="64px"><linearGradient id="g1Jhn6B3KpVaWwir9J4oaa" x1="32" x2="32" y1="6" y2="58" gradientUnits="userSpaceOnUse" spreadMethod="reflect"><stop offset="0" stop-color="#1a6dff"/><stop offset="1" stop-color="#c822ff"/></linearGradient><path fill="url(#g1Jhn6B3KpVaWwir9J4oaa)" d="M32,6C17.66,6,6,17.66,6,32c0,14.34,11.66,26,26,26s26-11.66,26-26C58,17.66,46.34,6,32,6z M52.07,45.14c-0.24,0.37-0.49,0.74-0.75,1.09c-0.4,0.54-0.82,1.06-1.27,1.56c-0.26,0.31-0.54,0.6-0.82,0.89 c-1.11,1.16-2.34,2.2-3.67,3.11c-0.33,0.23-0.66,0.45-1,0.65c-0.44,0.27-0.88,0.53-1.34,0.77c-0.44,0.24-0.88,0.46-1.34,0.66 c-0.53,0.24-1.07,0.46-1.61,0.66c-0.62,0.23-1.25,0.43-1.9,0.6c-0.58,0.17-1.17,0.31-1.78,0.42C35.11,55.85,33.57,56,32,56 s-3.11-0.15-4.59-0.45c-0.61-0.11-1.21-0.25-1.79-0.42c-0.65-0.17-1.28-0.37-1.9-0.6c-0.55-0.2-1.09-0.43-1.62-0.67 c-0.46-0.2-0.9-0.42-1.34-0.66c-0.45-0.24-0.9-0.49-1.33-0.77c-0.34-0.2-0.67-0.41-0.99-0.64c-1.33-0.91-2.56-1.95-3.67-3.11 c-0.29-0.29-0.57-0.59-0.83-0.9c-0.44-0.5-0.86-1.01-1.26-1.55c-0.26-0.35-0.51-0.72-0.75-1.09c-0.36-0.54-0.69-1.1-1.01-1.67 c-0.24-0.44-0.46-0.88-0.67-1.34c-0.26-0.54-0.5-1.1-0.7-1.66c-0.2-0.52-0.38-1.04-0.54-1.58c-0.19-0.61-0.34-1.23-0.47-1.86 c-0.14-0.6-0.25-1.22-0.32-1.85c-0.09-0.6-0.15-1.22-0.18-1.84C8.01,32.9,8,32.45,8,32c0-0.26,0-0.52,0.02-0.78 c0.01-0.64,0.06-1.26,0.13-1.88c0.08-0.73,0.19-1.45,0.34-2.16c0-0.01,0-0.01,0-0.01c0.56-2.73,1.58-5.3,2.99-7.61c0,0,0,0,0-0.01 c0.15-0.24,0.3-0.48,0.46-0.71C16.2,12.37,23.51,8.07,31.81,8h0.38c8.29,0.07,15.6,4.36,19.87,10.83c0.15,0.24,0.31,0.48,0.46,0.72 c0,0.01,0,0.01,0,0.01c1.41,2.31,2.43,4.88,2.99,7.61c0,0,0,0,0,0.01c0.15,0.71,0.26,1.43,0.34,2.17c0.07,0.61,0.12,1.24,0.13,1.87 C56,31.48,56,31.74,56,32c0,0.45-0.01,0.9-0.04,1.34c-0.03,0.62-0.09,1.24-0.18,1.84c-0.07,0.63-0.18,1.25-0.32,1.85 c-0.13,0.64-0.29,1.26-0.48,1.87c-0.15,0.53-0.33,1.05-0.53,1.57c-0.21,0.57-0.44,1.12-0.7,1.67c-0.21,0.45-0.43,0.9-0.67,1.33 C52.76,44.04,52.43,44.6,52.07,45.14z"/><path fill="#29abe2" d="M11.48 19.56c.05 2.79-1.21 5.31-2.99 7.61C9.05 24.44 10.07 21.87 11.48 19.56zM55.51 27.17c-1.78-2.29-3.04-4.81-2.99-7.61C53.93 21.87 54.95 24.44 55.51 27.17z"/><linearGradient id="g1Jhn6B3KpVaWwir9J4oab" x1="31.997" x2="31.997" y1="7.917" y2="55.667" gradientUnits="userSpaceOnUse" spreadMethod="reflect"><stop offset="0" stop-color="#6dc7ff"/><stop offset="1" stop-color="#e6abff"/></linearGradient><path fill="url(#g1Jhn6B3KpVaWwir9J4oab)" d="M34.62,17.28c-0.23-0.04-1.33-0.24-2.62-0.24s-2.39,0.2-2.62,0.24 c-0.13,0.02-0.18-0.11-0.08-0.18c0.09-0.07,2.7-2.06,2.7-2.06s2.61,1.99,2.69,2.06C34.8,17.17,34.74,17.3,34.62,17.28z"/><linearGradient id="g1Jhn6B3KpVaWwir9J4oac" x1="32" x2="32" y1="7.917" y2="55.667" gradientUnits="userSpaceOnUse" spreadMethod="reflect"><stop offset="0" stop-color="#6dc7ff"/><stop offset="1" stop-color="#e6abff"/></linearGradient><path fill="url(#g1Jhn6B3KpVaWwir9J4oac)" d="M50.17,31.42c-0.29-0.75-0.64-1.47-1.02-2.16c3.08-0.54,4.56,1.37,6.83,1.96 c-0.01-0.63-0.06-1.26-0.13-1.87c-2.31-0.35-4.53-2.73-7.63-1.65c-1.35-2-3.05-3.74-5.02-5.12c1.91-0.79,4.23-0.61,6.22,0.67 c0.3-1.81,1.27-3.43,2.64-4.42C47.79,12.36,40.48,8.07,32.19,8l1.19,2.77l3.44,0.24l-2.57,2.28l1.15,3.05 c1.49-1.53,3.52-2.41,5.95-2.67c-0.91,1.37-1.63,2.78-2.21,4.4c1.34-1.09,3.01-1.75,4.91-1.88c-1.14,1.47-2.16,3.04-2.91,4.73 c-0.08,0.19-0.27,0.26-0.47,0.15c-2.61-1.3-5.55-2.04-8.67-2.04s-6.07,0.74-8.68,2.04c-0.2,0.1-0.38,0.04-0.47-0.15 c-0.75-1.69-1.76-3.26-2.91-4.73c1.91,0.13,3.57,0.79,4.91,1.88c-0.57-1.62-1.3-3.03-2.2-4.4c2.43,0.26,4.45,1.15,5.94,2.67 l1.16-3.05l-2.58-2.28l3.44-0.24L31.81,8c-8.3,0.07-15.61,4.37-19.87,10.84c1.39,0.99,2.34,2.6,2.64,4.41 c1.98-1.28,4.31-1.46,6.22-0.67c-1.97,1.38-3.68,3.12-5.02,5.12c-3.1-1.08-5.33,1.29-7.63,1.64c-0.07,0.62-0.12,1.24-0.13,1.88 c2.26-0.59,3.74-2.5,6.82-1.96c-0.38,0.69-0.72,1.41-1.02,2.16c-2.41-0.27-3.72,1.35-5.78,1.92c0.03,0.62,0.09,1.24,0.18,1.84 c1.6-0.55,2.76-1.92,4.96-1.83c-0.18,0.64-0.33,1.3-0.44,1.97c-1.76-0.01-2.78,1.15-4.2,1.71c0.13,0.63,0.28,1.25,0.47,1.86 c0.99-0.57,1.89-1.42,3.48-1.38c-0.02,0.36-0.03,0.72-0.03,1.09c0,0.21,0,0.41,0.01,0.61c-1.29-0.02-2.07,0.7-2.92,1.26 c0.2,0.56,0.44,1.12,0.7,1.66c0.59-0.46,1.28-0.88,2.4-0.81c0.07,0.49,0.15,0.97,0.26,1.45c-0.91-0.06-1.49,0.29-1.99,0.7 c0.32,0.57,0.65,1.13,1.01,1.67c0.4-0.29,0.87-0.5,1.47-0.53c-0.16-0.49-0.3-1.01-0.42-1.51c1.4,0,2.99-0.55,4.33-1.78 c-0.43-2.47,3.4-4.99,3.4-6.8c0-1.97-0.99-3.05-0.99-5.71c0-1.96,0.96-4.11,2.39-5.56c0.28-0.29,0.57-0.52,0.9-0.72 c-1.32,1.64-2.34,3.58-2.34,5.83c0,2.5,1.16,3.82,1.16,6.13c0,2.3-3.37,4.3-3.37,6.67c0,0.94,0.3,1.85,1.28,3.65 c-1.51,1.51-3.48,2.34-4.75,2.34c-0.42,0-0.63-0.14-0.78-0.46c-0.13-0.27-0.24-0.56-0.36-0.84c-0.46,0.02-0.84,0.17-1.17,0.38 c0.4,0.54,0.82,1.05,1.26,1.55c0.2-0.12,0.42-0.22,0.65-0.29c0.18,0.35,0.37,0.69,0.57,1.03c-0.14,0.04-0.27,0.09-0.39,0.16 c1.11,1.16,2.34,2.2,3.67,3.11c1.1-1.71,2.81-3.29,2.1-5.52c0.32,0.54,0.7,1.22,0.7,2.03c0,1.49-1.06,2.78-1.81,4.13 c0.43,0.28,0.88,0.53,1.33,0.77c0.77-1.77,2.03-3.53,2.03-4.95c0-2.23-2.92-4.46-2.92-7.09c0-2.62,3.36-4.45,3.36-6.76 s-1.43-3.64-1.43-6.58c0-2.17,1.03-4.36,2.61-5.77c0.29-0.24,0.56-0.44,0.9-0.62c-1.5,1.8-2.37,3.44-2.37,5.91 c0,2.79,1.64,4.32,1.64,7.04c0,2.72-3.29,4.24-3.29,6.78c0,2.54,3.06,4.68,3.06,7.29c0,1.75-1.46,3.48-2.25,5.41 c0.53,0.24,1.07,0.47,1.62,0.67c0.71-2.12,2.39-4.19,2.39-5.92c0-2.53-3.18-4.71-3.18-7.45c0-2.73,3.24-4,3.24-6.82 c0-2.8-1.99-4.36-1.99-7.45c0-2.42,1.19-4.6,2.93-5.94c0.04-0.03,0.07-0.06,0.12-0.09c0.16-0.12,0.29,0.03,0.18,0.17 c-1.23,1.54-1.89,3.11-1.89,5.41c0,2.84,2.28,5.14,2.28,7.89c0,3.24-3.07,4.17-3.07,6.83c0,2.67,3.29,4.79,3.29,7.62 c0,1.98-1.77,4.12-2.4,6.35c0.58,0.17,1.18,0.31,1.79,0.42c0.48-2.67,2.4-4.78,2.4-6.73c0-2.67-3.41-5.05-3.41-7.66 c0-2.46,2.44-3.26,2.76-5.77c0.05-0.35,0.33-0.6,0.7-0.54c0.51,0.09,1.14,0.42,2.13,0.42c1,0,1.64-0.33,2.14-0.42 c0.38-0.06,0.65,0.19,0.7,0.54c0.32,2.51,2.76,3.31,2.76,5.77c0,2.61-3.4,4.99-3.4,7.66c0,1.95,1.91,4.06,2.4,6.73 c0.61-0.11,1.2-0.25,1.78-0.42c-0.63-2.23-2.4-4.38-2.4-6.35c0-2.83,3.28-4.95,3.28-7.62c0-2.66-3.05-3.59-3.05-6.83 c0-2.75,2.27-5.05,2.27-7.89c0-2.3-0.66-3.87-1.88-5.41c-0.13-0.14,0.01-0.29,0.17-0.17c0.04,0.03,0.07,0.06,0.12,0.09 c1.74,1.34,2.93,3.52,2.93,5.94c0,3.09-1.99,4.65-1.99,7.45c0,2.82,3.24,4.09,3.24,6.82c0,2.74-3.19,4.92-3.19,7.45 c0,1.73,1.68,3.8,2.4,5.92c0.54-0.2,1.08-0.42,1.61-0.66c-0.26-0.64-0.59-1.25-0.92-1.85c-0.67-1.23-1.33-2.4-1.33-3.57 c0-2.61,3.07-4.75,3.07-7.29c0-2.54-3.29-4.06-3.29-6.78c0-2.72,1.64-4.25,1.64-7.04c0-2.47-0.87-4.11-2.36-5.91 c0.33,0.18,0.61,0.37,0.88,0.62c1.59,1.41,2.62,3.6,2.62,5.77c0,2.94-1.43,4.27-1.43,6.58s3.37,4.14,3.37,6.76 c0,2.63-2.92,4.86-2.92,7.09c0,1.43,1.26,3.19,2.01,4.96c0.46-0.24,0.9-0.5,1.34-0.77c-0.76-1.36-1.82-2.65-1.82-4.14 c0-0.81,0.39-1.49,0.7-2.03c-0.7,2.23,1.01,3.81,2.12,5.52c1.33-0.91,2.56-1.95,3.67-3.11c-0.13-0.07-0.26-0.12-0.4-0.16 c0.21-0.34,0.39-0.68,0.57-1.03c0.23,0.07,0.45,0.17,0.65,0.3c0.45-0.5,0.87-1.02,1.27-1.56c-0.33-0.21-0.71-0.36-1.17-0.38 c-0.12,0.27-0.24,0.56-0.36,0.84c-0.16,0.32-0.37,0.45-0.79,0.45c-1.27,0-3.24-0.82-4.75-2.34c0.99-1.79,1.28-2.71,1.28-3.65 c0-2.37-3.36-4.37-3.36-6.67s1.15-3.62,1.15-6.12c0-2.25-1.01-4.2-2.34-5.84c0.33,0.21,0.62,0.44,0.9,0.73 c1.44,1.45,2.4,3.6,2.4,5.55c0,2.66-1,3.75-1,5.72c0,1.81,3.83,4.32,3.4,6.8c1.34,1.23,2.93,1.77,4.33,1.77 c-0.12,0.51-0.27,1.02-0.42,1.52c0.6,0.03,1.08,0.24,1.48,0.53c0.36-0.54,0.69-1.1,1.01-1.67c-0.5-0.41-1.08-0.77-1.99-0.71 c0.1-0.47,0.18-0.96,0.25-1.44c1.12-0.07,1.82,0.36,2.41,0.82c0.26-0.55,0.49-1.1,0.7-1.67c-0.85-0.56-1.63-1.28-2.93-1.26 c0.01-0.2,0.01-0.41,0.01-0.61c0-0.37-0.01-0.73-0.03-1.09c1.59-0.04,2.49,0.81,3.48,1.39c0.19-0.61,0.35-1.23,0.48-1.87 c-1.43-0.56-2.45-1.72-4.21-1.71c-0.1-0.67-0.26-1.33-0.43-1.97c2.2-0.09,3.36,1.28,4.96,1.83c0.09-0.6,0.15-1.22,0.18-1.84 C53.9,32.78,52.58,31.15,50.17,31.42z M36.97,23.35c0.04,0.14-0.01,0.23-0.17,0.15c-0.43-0.19-0.93-0.28-1.47-0.28 c-0.99,0-1.85,0.36-2.37,0.99c-0.14,0.47-0.14,0.98-0.15,1.48c0,0.58,0.12,1.13,0.33,1.62c0.57-0.06,0.43-1.05,0.9-1.05 c0.39,0,0.58,0.28,1.26,0.28c0.62,0,0.87-0.18,1.14-0.38c0.54,0.08,0.66,0.6,0.66,1.2c0,2.7-2.47,6.41-5.11,6.41 c-2.63,0-5.1-3.71-5.1-6.41c0-0.6,0.09-1.13,0.61-1.13c0.45,0,0.52,0.31,1.2,0.31c0.67,0,0.98-0.28,1.37-0.28 c0.4,0,0.55,0.32,0.95,0.41c0.12-0.31,0.17-0.71,0.17-1.15c0-0.45-0.05-0.93-0.16-1.31c-0.52-0.63-1.38-0.99-2.37-0.99 c-0.54,0-1.03,0.09-1.46,0.28c-0.16,0.08-0.22-0.02-0.18-0.15c0.54-1.77,2.56-3.14,4.98-3.14S36.44,21.58,36.97,23.35z M36.92,24.68c0,0.23-0.07,0.42-0.31,0.64c-0.46-0.5-1.38-0.49-2.43-0.13c-0.06-0.13-0.06-0.32-0.02-0.45 c0.43-0.48,1.11-0.66,1.68-0.66C36.57,24.08,36.92,24.33,36.92,24.68z M27.07,24.68c0-0.35,0.36-0.6,1.07-0.6 c0.99,0,1.98,0.61,1.94,1.16c-1.11-0.41-2.18-0.44-2.69,0.08C27.16,25.1,27.07,24.91,27.07,24.68z"/><linearGradient id="g1Jhn6B3KpVaWwir9J4oad" x1="32.005" x2="32.005" y1="7.917" y2="55.667" gradientUnits="userSpaceOnUse" spreadMethod="reflect"><stop offset="0" stop-color="#6dc7ff"/><stop offset="1" stop-color="#e6abff"/></linearGradient><path fill="url(#g1Jhn6B3KpVaWwir9J4oad)" d="M33.3,28.89c-0.01,0.08-0.03,0.14-0.09,0.2c-0.46,0.08-0.66,0.34-1.2,0.34 c-0.53,0-0.75-0.26-1.21-0.34c-0.05-0.06-0.08-0.12-0.09-0.2c0.09-0.15,0.49-0.31,0.7-0.31c0.21,0,0.28,0.1,0.6,0.1 s0.39-0.1,0.6-0.1C32.82,28.58,33.22,28.74,33.3,28.89z"/><linearGradient id="g1Jhn6B3KpVaWwir9J4oae" x1="32.005" x2="32.005" y1="7.917" y2="55.667" gradientUnits="userSpaceOnUse" spreadMethod="reflect"><stop offset="0" stop-color="#6dc7ff"/><stop offset="1" stop-color="#e6abff"/></linearGradient><path fill="url(#g1Jhn6B3KpVaWwir9J4oae)" d="M34.07,30.36c-0.55,0.42-0.93,1.38-2.07,1.38c-1.15,0-1.52-0.96-2.06-1.38 c0.03-0.12,0.17-0.17,0.17-0.17s0.71,0.17,1.88,0.17c1.18,0,1.9-0.17,1.9-0.17S34.02,30.24,34.07,30.36z"/></svg>